<mxfile host="app.diagrams.net" agent="Mozilla/5.0 (Macintosh; Intel Mac OS X 10_15_7) AppleWebKit/537.36 (KHTML, like Gecko) Chrome/136.0.0.0 Safari/537.36" version="27.0.4">
  <diagram name="Page-1" id="cb0I5y7FxljxH4ByXgm0">
    <mxGraphModel dx="1351" dy="920" grid="1" gridSize="10" guides="1" tooltips="1" connect="1" arrows="1" fold="1" page="1" pageScale="1" pageWidth="634" pageHeight="512" math="0" shadow="0">
      <root>
        <mxCell id="0" />
        <mxCell id="1" parent="0" />
        <mxCell id="O2Zdhxr6QXAhQVbzM1EF-78" value="" style="group;fontSize=12;fontFamily=Times New Roman;fontStyle=1" parent="1" vertex="1" connectable="0">
          <mxGeometry x="570" y="398" width="560" height="390" as="geometry" />
        </mxCell>
        <mxCell id="O2Zdhxr6QXAhQVbzM1EF-59" value="Dataset Handler" style="shape=folder;fontStyle=1;spacingTop=10;tabWidth=40;tabHeight=14;tabPosition=left;html=1;whiteSpace=wrap;strokeColor=#6c8ebf;fillColor=#dae8fc;verticalAlign=top;gradientColor=#7ea6e0;fontSize=12;fontFamily=Times New Roman;" parent="O2Zdhxr6QXAhQVbzM1EF-78" vertex="1">
          <mxGeometry width="560" height="390" as="geometry" />
        </mxCell>
        <mxCell id="O2Zdhxr6QXAhQVbzM1EF-58" value="" style="group;fontSize=12;fontFamily=Times New Roman;fontStyle=1" parent="O2Zdhxr6QXAhQVbzM1EF-78" vertex="1" connectable="0">
          <mxGeometry x="267.8260869565217" y="49.883720930232556" width="284.0579710144927" height="281.1627906976744" as="geometry" />
        </mxCell>
        <mxCell id="O2Zdhxr6QXAhQVbzM1EF-52" value="Data Preprocessor" style="shape=folder;fontStyle=1;spacingTop=10;tabWidth=40;tabHeight=14;tabPosition=left;html=1;whiteSpace=wrap;strokeColor=#6c8ebf;fillColor=#dae8fc;labelPosition=center;verticalLabelPosition=middle;align=center;verticalAlign=top;gradientColor=#7ea6e0;fontSize=12;fontFamily=Times New Roman;" parent="O2Zdhxr6QXAhQVbzM1EF-58" vertex="1">
          <mxGeometry width="284.0579710144927" height="281.1627906976744" as="geometry" />
        </mxCell>
        <mxCell id="O2Zdhxr6QXAhQVbzM1EF-53" value="IMU Bias Correction&lt;div&gt;&amp;amp;&lt;/div&gt;&lt;div&gt;Downsampling&lt;/div&gt;" style="html=1;whiteSpace=wrap;strokeColor=#6c8ebf;fillColor=#dae8fc;fontSize=10;fontFamily=Times New Roman;fontStyle=1" parent="O2Zdhxr6QXAhQVbzM1EF-58" vertex="1">
          <mxGeometry x="17.215634606938952" y="67.86688051323176" width="94.68599033816423" height="48.476343223736976" as="geometry" />
        </mxCell>
        <mxCell id="O2Zdhxr6QXAhQVbzM1EF-54" value="Normalization" style="html=1;whiteSpace=wrap;strokeColor=#6c8ebf;fillColor=#dae8fc;fontSize=12;fontFamily=Times New Roman;fontStyle=1" parent="O2Zdhxr6QXAhQVbzM1EF-58" vertex="1">
          <mxGeometry x="17.215634606938952" y="145.4290296712109" width="94.68599033816423" height="48.476343223736976" as="geometry" />
        </mxCell>
        <mxCell id="O2Zdhxr6QXAhQVbzM1EF-55" value="Statistics ( μ, σ )" style="html=1;whiteSpace=wrap;strokeColor=#6c8ebf;fillColor=#dae8fc;fontSize=12;fontFamily=Times New Roman;fontStyle=1" parent="O2Zdhxr6QXAhQVbzM1EF-58" vertex="1">
          <mxGeometry x="17.215634606938952" y="213.29591018444268" width="94.68599033816423" height="48.476343223736976" as="geometry" />
        </mxCell>
        <mxCell id="O2Zdhxr6QXAhQVbzM1EF-56" value="Coordinate Transform&lt;div&gt;&lt;br&gt;&lt;/div&gt;&lt;div&gt;1. Quaternions to Euler&lt;/div&gt;&lt;div&gt;2. Relative Pose&lt;/div&gt;" style="html=1;whiteSpace=wrap;strokeColor=#6c8ebf;fillColor=#dae8fc;verticalAlign=top;align=center;fontSize=12;fontFamily=Times New Roman;fontStyle=1" parent="O2Zdhxr6QXAhQVbzM1EF-58" vertex="1">
          <mxGeometry x="129.11725955204213" y="67.86511773711455" width="137.72507685551162" height="87.25741780272655" as="geometry" />
        </mxCell>
        <mxCell id="O2Zdhxr6QXAhQVbzM1EF-60" value="Depth Decoder" style="verticalAlign=middle;align=center;spacingTop=8;spacingLeft=2;spacingRight=12;shape=cube;size=10;direction=south;fontStyle=5;html=1;whiteSpace=wrap;strokeColor=#9673a6;fillColor=#e1d5e7;fontSize=12;fontFamily=Times New Roman;" parent="O2Zdhxr6QXAhQVbzM1EF-58" vertex="1">
          <mxGeometry x="129.11586368977675" y="159.53006342494714" width="138.19036427732075" height="102.24101479915433" as="geometry" />
        </mxCell>
        <mxCell id="O2Zdhxr6QXAhQVbzM1EF-75" style="edgeStyle=orthogonalEdgeStyle;rounded=0;orthogonalLoop=1;jettySize=auto;html=1;exitX=0.5;exitY=1;exitDx=0;exitDy=0;strokeColor=#23445D;fontSize=12;fontFamily=Times New Roman;fontStyle=1" parent="O2Zdhxr6QXAhQVbzM1EF-78" source="O2Zdhxr6QXAhQVbzM1EF-72" target="O2Zdhxr6QXAhQVbzM1EF-73" edge="1">
          <mxGeometry relative="1" as="geometry" />
        </mxCell>
        <mxCell id="mVTKuXDOy_IMATIsshax-1" value="" style="edgeStyle=orthogonalEdgeStyle;rounded=0;orthogonalLoop=1;jettySize=auto;html=1;fontSize=12;fontFamily=Times New Roman;fontStyle=1" edge="1" parent="O2Zdhxr6QXAhQVbzM1EF-78" source="O2Zdhxr6QXAhQVbzM1EF-72" target="O2Zdhxr6QXAhQVbzM1EF-76">
          <mxGeometry relative="1" as="geometry" />
        </mxCell>
        <mxCell id="O2Zdhxr6QXAhQVbzM1EF-72" value="Data Segmentation" style="rounded=1;whiteSpace=wrap;html=1;strokeColor=#36393d;fillColor=#cce5ff;fontSize=12;fontFamily=Times New Roman;fontStyle=1" parent="O2Zdhxr6QXAhQVbzM1EF-78" vertex="1">
          <mxGeometry x="81.15942028985506" y="126.9767441860465" width="97.39130434782608" height="54.41860465116279" as="geometry" />
        </mxCell>
        <mxCell id="O2Zdhxr6QXAhQVbzM1EF-77" style="edgeStyle=orthogonalEdgeStyle;rounded=0;orthogonalLoop=1;jettySize=auto;html=1;exitX=0.5;exitY=1;exitDx=0;exitDy=0;entryX=0.5;entryY=0;entryDx=0;entryDy=0;strokeColor=#23445D;fontSize=12;fontFamily=Times New Roman;fontStyle=1" parent="O2Zdhxr6QXAhQVbzM1EF-78" source="O2Zdhxr6QXAhQVbzM1EF-73" target="O2Zdhxr6QXAhQVbzM1EF-76" edge="1">
          <mxGeometry relative="1" as="geometry" />
        </mxCell>
        <mxCell id="O2Zdhxr6QXAhQVbzM1EF-73" value="Random Batch Sampling" style="rounded=1;whiteSpace=wrap;html=1;strokeColor=#36393d;fillColor=#cce5ff;fontSize=12;fontFamily=Times New Roman;fontStyle=1" parent="O2Zdhxr6QXAhQVbzM1EF-78" vertex="1">
          <mxGeometry x="81.15942028985506" y="217.67441860465115" width="97.39130434782608" height="54.41860465116279" as="geometry" />
        </mxCell>
        <mxCell id="O2Zdhxr6QXAhQVbzM1EF-74" style="edgeStyle=orthogonalEdgeStyle;rounded=0;orthogonalLoop=1;jettySize=auto;html=1;exitX=0;exitY=0;exitDx=0;exitDy=162;exitPerimeter=0;entryX=0.5;entryY=0;entryDx=0;entryDy=0;strokeColor=#23445D;fontSize=12;fontFamily=Times New Roman;fontStyle=1" parent="O2Zdhxr6QXAhQVbzM1EF-78" source="O2Zdhxr6QXAhQVbzM1EF-52" target="O2Zdhxr6QXAhQVbzM1EF-72" edge="1">
          <mxGeometry relative="1" as="geometry" />
        </mxCell>
        <mxCell id="O2Zdhxr6QXAhQVbzM1EF-76" value="Padding" style="rounded=1;whiteSpace=wrap;html=1;strokeColor=#36393d;fillColor=#cce5ff;fontSize=12;fontFamily=Times New Roman;fontStyle=1" parent="O2Zdhxr6QXAhQVbzM1EF-78" vertex="1">
          <mxGeometry x="81.15942028985506" y="299.30232558139534" width="97.39130434782608" height="54.41860465116279" as="geometry" />
        </mxCell>
        <mxCell id="O2Zdhxr6QXAhQVbzM1EF-89" value="Model Training and Validation loop" style="shape=folder;fontStyle=1;spacingTop=10;tabWidth=40;tabHeight=14;tabPosition=left;html=1;whiteSpace=wrap;strokeColor=#82b366;fillColor=#d5e8d4;verticalAlign=top;gradientColor=#97d077;fontSize=12;fontFamily=Times New Roman;" parent="1" vertex="1">
          <mxGeometry x="130" y="140" width="410" height="650" as="geometry" />
        </mxCell>
        <mxCell id="O2Zdhxr6QXAhQVbzM1EF-97" style="edgeStyle=orthogonalEdgeStyle;rounded=0;orthogonalLoop=1;jettySize=auto;html=1;exitX=0.5;exitY=0;exitDx=0;exitDy=0;entryX=0.5;entryY=1;entryDx=0;entryDy=0;strokeColor=#23445D;fontSize=12;fontFamily=Times New Roman;fontStyle=1" parent="1" source="O2Zdhxr6QXAhQVbzM1EF-91" target="O2Zdhxr6QXAhQVbzM1EF-93" edge="1">
          <mxGeometry relative="1" as="geometry" />
        </mxCell>
        <mxCell id="O2Zdhxr6QXAhQVbzM1EF-91" value="Model" style="rounded=1;whiteSpace=wrap;html=1;strokeColor=#3A5431;fillColor=#6d8764;fontColor=#ffffff;fontSize=12;fontFamily=Times New Roman;fontStyle=1" parent="1" vertex="1">
          <mxGeometry x="270" y="676" width="120" height="60" as="geometry" />
        </mxCell>
        <mxCell id="O2Zdhxr6QXAhQVbzM1EF-113" style="edgeStyle=orthogonalEdgeStyle;rounded=0;orthogonalLoop=1;jettySize=auto;html=1;exitX=0.5;exitY=0;exitDx=0;exitDy=0;entryX=0.5;entryY=1;entryDx=0;entryDy=0;strokeColor=#23445D;fontSize=12;fontFamily=Times New Roman;fontStyle=1" parent="1" source="O2Zdhxr6QXAhQVbzM1EF-93" target="O2Zdhxr6QXAhQVbzM1EF-98" edge="1">
          <mxGeometry relative="1" as="geometry" />
        </mxCell>
        <mxCell id="O2Zdhxr6QXAhQVbzM1EF-93" value="Forward Pass" style="rounded=1;whiteSpace=wrap;html=1;strokeColor=#3A5431;fillColor=#6d8764;fontColor=#ffffff;fontSize=12;fontFamily=Times New Roman;fontStyle=1" parent="1" vertex="1">
          <mxGeometry x="270" y="596" width="120" height="60" as="geometry" />
        </mxCell>
        <mxCell id="O2Zdhxr6QXAhQVbzM1EF-114" style="edgeStyle=orthogonalEdgeStyle;rounded=0;orthogonalLoop=1;jettySize=auto;html=1;exitX=0.5;exitY=0;exitDx=0;exitDy=0;entryX=0.5;entryY=1;entryDx=0;entryDy=0;strokeColor=#23445D;fontSize=12;fontFamily=Times New Roman;fontStyle=1" parent="1" source="O2Zdhxr6QXAhQVbzM1EF-98" target="O2Zdhxr6QXAhQVbzM1EF-100" edge="1">
          <mxGeometry relative="1" as="geometry" />
        </mxCell>
        <mxCell id="O2Zdhxr6QXAhQVbzM1EF-98" value="Loss Computation" style="rounded=1;whiteSpace=wrap;html=1;strokeColor=#3A5431;fillColor=#6d8764;fontColor=#ffffff;fontSize=12;fontFamily=Times New Roman;fontStyle=1" parent="1" vertex="1">
          <mxGeometry x="270" y="516" width="120" height="60" as="geometry" />
        </mxCell>
        <mxCell id="O2Zdhxr6QXAhQVbzM1EF-115" style="edgeStyle=orthogonalEdgeStyle;rounded=0;orthogonalLoop=1;jettySize=auto;html=1;exitX=0.5;exitY=0;exitDx=0;exitDy=0;strokeColor=#23445D;fontSize=12;fontFamily=Times New Roman;fontStyle=1" parent="1" source="O2Zdhxr6QXAhQVbzM1EF-100" target="O2Zdhxr6QXAhQVbzM1EF-101" edge="1">
          <mxGeometry relative="1" as="geometry" />
        </mxCell>
        <mxCell id="O2Zdhxr6QXAhQVbzM1EF-100" value="Backpropagation" style="rounded=1;whiteSpace=wrap;html=1;strokeColor=#3A5431;fillColor=#6d8764;fontColor=#ffffff;fontSize=12;fontFamily=Times New Roman;fontStyle=1" parent="1" vertex="1">
          <mxGeometry x="270" y="436" width="120" height="60" as="geometry" />
        </mxCell>
        <mxCell id="O2Zdhxr6QXAhQVbzM1EF-116" style="edgeStyle=orthogonalEdgeStyle;rounded=0;orthogonalLoop=1;jettySize=auto;html=1;exitX=0.5;exitY=0;exitDx=0;exitDy=0;entryX=0.5;entryY=1;entryDx=0;entryDy=0;strokeColor=#23445D;fontSize=12;fontFamily=Times New Roman;fontStyle=1" parent="1" source="O2Zdhxr6QXAhQVbzM1EF-101" target="O2Zdhxr6QXAhQVbzM1EF-102" edge="1">
          <mxGeometry relative="1" as="geometry" />
        </mxCell>
        <mxCell id="O2Zdhxr6QXAhQVbzM1EF-101" value="Weight Update" style="rounded=1;whiteSpace=wrap;html=1;strokeColor=#3A5431;fillColor=#6d8764;fontColor=#ffffff;fontSize=12;fontFamily=Times New Roman;fontStyle=1" parent="1" vertex="1">
          <mxGeometry x="270" y="356" width="120" height="60" as="geometry" />
        </mxCell>
        <mxCell id="O2Zdhxr6QXAhQVbzM1EF-104" style="edgeStyle=orthogonalEdgeStyle;rounded=0;orthogonalLoop=1;jettySize=auto;html=1;exitX=0;exitY=0.5;exitDx=0;exitDy=0;entryX=0;entryY=0.5;entryDx=0;entryDy=0;strokeColor=#23445D;fontSize=12;fontFamily=Times New Roman;fontStyle=1" parent="1" source="O2Zdhxr6QXAhQVbzM1EF-102" target="O2Zdhxr6QXAhQVbzM1EF-93" edge="1">
          <mxGeometry relative="1" as="geometry" />
        </mxCell>
        <mxCell id="O2Zdhxr6QXAhQVbzM1EF-117" style="edgeStyle=orthogonalEdgeStyle;rounded=0;orthogonalLoop=1;jettySize=auto;html=1;exitX=0.5;exitY=0;exitDx=0;exitDy=0;entryX=1;entryY=0.5;entryDx=0;entryDy=0;strokeColor=#23445D;fontSize=12;fontFamily=Times New Roman;fontStyle=1" parent="1" source="O2Zdhxr6QXAhQVbzM1EF-102" target="O2Zdhxr6QXAhQVbzM1EF-106" edge="1">
          <mxGeometry relative="1" as="geometry" />
        </mxCell>
        <mxCell id="O2Zdhxr6QXAhQVbzM1EF-118" style="edgeStyle=orthogonalEdgeStyle;rounded=0;orthogonalLoop=1;jettySize=auto;html=1;exitX=0.5;exitY=0;exitDx=0;exitDy=0;entryX=0;entryY=0.5;entryDx=0;entryDy=0;strokeColor=#23445D;fontSize=12;fontFamily=Times New Roman;fontStyle=1" parent="1" source="O2Zdhxr6QXAhQVbzM1EF-102" target="O2Zdhxr6QXAhQVbzM1EF-107" edge="1">
          <mxGeometry relative="1" as="geometry" />
        </mxCell>
        <mxCell id="O2Zdhxr6QXAhQVbzM1EF-125" style="edgeStyle=orthogonalEdgeStyle;rounded=0;orthogonalLoop=1;jettySize=auto;html=1;exitX=1;exitY=0.5;exitDx=0;exitDy=0;strokeColor=#23445D;fontSize=12;fontFamily=Times New Roman;fontStyle=1" parent="1" source="O2Zdhxr6QXAhQVbzM1EF-102" target="O2Zdhxr6QXAhQVbzM1EF-124" edge="1">
          <mxGeometry relative="1" as="geometry" />
        </mxCell>
        <mxCell id="O2Zdhxr6QXAhQVbzM1EF-102" value="End Epoch" style="rhombus;whiteSpace=wrap;html=1;strokeColor=#6c8ebf;fillColor=#dae8fc;gradientColor=#7ea6e0;fontSize=12;fontFamily=Times New Roman;fontStyle=1" parent="1" vertex="1">
          <mxGeometry x="295" y="256" width="80" height="80" as="geometry" />
        </mxCell>
        <mxCell id="O2Zdhxr6QXAhQVbzM1EF-105" value="&lt;font&gt;NO&lt;/font&gt;" style="text;html=1;align=center;verticalAlign=middle;whiteSpace=wrap;rounded=0;fontColor=#ffffff;fillColor=#e51400;strokeColor=#B20000;fontSize=12;fontFamily=Times New Roman;fontStyle=1" parent="1" vertex="1">
          <mxGeometry x="254" y="273" width="35" height="15" as="geometry" />
        </mxCell>
        <mxCell id="O2Zdhxr6QXAhQVbzM1EF-106" value="Early Stopping" style="rounded=1;whiteSpace=wrap;html=1;strokeColor=#d79b00;fillColor=#ffe6cc;fontSize=12;fontFamily=Times New Roman;fontStyle=1" parent="1" vertex="1">
          <mxGeometry x="169" y="178" width="120" height="60" as="geometry" />
        </mxCell>
        <mxCell id="O2Zdhxr6QXAhQVbzM1EF-107" value="Save Checkpoint" style="rounded=1;whiteSpace=wrap;html=1;strokeColor=#d79b00;fillColor=#ffe6cc;fontSize=12;fontFamily=Times New Roman;fontStyle=1" parent="1" vertex="1">
          <mxGeometry x="379" y="178" width="120" height="60" as="geometry" />
        </mxCell>
        <mxCell id="O2Zdhxr6QXAhQVbzM1EF-122" style="edgeStyle=orthogonalEdgeStyle;rounded=0;orthogonalLoop=1;jettySize=auto;html=1;exitX=0.5;exitY=0;exitDx=0;exitDy=0;strokeColor=#23445D;fontSize=12;fontFamily=Times New Roman;fontStyle=1" parent="1" source="O2Zdhxr6QXAhQVbzM1EF-119" edge="1">
          <mxGeometry relative="1" as="geometry">
            <mxPoint x="980" y="728" as="targetPoint" />
          </mxGeometry>
        </mxCell>
        <mxCell id="O2Zdhxr6QXAhQVbzM1EF-119" value="Mid-Air Dataset" style="rounded=1;whiteSpace=wrap;html=1;strokeColor=#314354;fontColor=#ffffff;fillColor=#647687;fontSize=12;fontFamily=Times New Roman;fontStyle=1" parent="1" vertex="1">
          <mxGeometry x="988.36" y="818" width="120" height="60" as="geometry" />
        </mxCell>
        <mxCell id="O2Zdhxr6QXAhQVbzM1EF-120" value="KITTI Dataset" style="rounded=1;whiteSpace=wrap;html=1;strokeColor=#314354;fontColor=#ffffff;fillColor=#647687;fontSize=12;fontFamily=Times New Roman;fontStyle=1" parent="1" vertex="1">
          <mxGeometry x="851.36" y="818" width="120" height="60" as="geometry" />
        </mxCell>
        <mxCell id="O2Zdhxr6QXAhQVbzM1EF-121" style="edgeStyle=orthogonalEdgeStyle;rounded=0;orthogonalLoop=1;jettySize=auto;html=1;exitX=0.5;exitY=0;exitDx=0;exitDy=0;entryX=0.5;entryY=1;entryDx=0;entryDy=0;entryPerimeter=0;strokeColor=#23445D;fontSize=12;fontFamily=Times New Roman;fontStyle=1" parent="1" source="O2Zdhxr6QXAhQVbzM1EF-120" target="O2Zdhxr6QXAhQVbzM1EF-52" edge="1">
          <mxGeometry relative="1" as="geometry" />
        </mxCell>
        <mxCell id="O2Zdhxr6QXAhQVbzM1EF-144" style="edgeStyle=orthogonalEdgeStyle;rounded=0;orthogonalLoop=1;jettySize=auto;html=1;exitX=0;exitY=0;exitDx=0;exitDy=122;exitPerimeter=0;entryX=0;entryY=0.5;entryDx=0;entryDy=0;strokeColor=#23445D;fontSize=12;fontFamily=Times New Roman;fontStyle=1" parent="1" source="O2Zdhxr6QXAhQVbzM1EF-123" target="O2Zdhxr6QXAhQVbzM1EF-136" edge="1">
          <mxGeometry relative="1" as="geometry" />
        </mxCell>
        <mxCell id="O2Zdhxr6QXAhQVbzM1EF-123" value="Model Test" style="shape=folder;fontStyle=1;spacingTop=10;tabWidth=40;tabHeight=14;tabPosition=left;html=1;whiteSpace=wrap;strokeColor=#b85450;fillColor=#f8cecc;gradientColor=#ea6b66;verticalAlign=top;fontSize=12;fontFamily=Times New Roman;" parent="1" vertex="1">
          <mxGeometry x="570" y="140" width="280" height="230" as="geometry" />
        </mxCell>
        <mxCell id="O2Zdhxr6QXAhQVbzM1EF-124" value="Weight &amp;amp; Biases Logger" style="shape=cube;whiteSpace=wrap;html=1;boundedLbl=1;backgroundOutline=1;darkOpacity=0.05;darkOpacity2=0.1;strokeColor=#996185;fillColor=#e6d0de;gradientColor=#d5739d;fontSize=12;fontFamily=Times New Roman;fontStyle=1" parent="1" vertex="1">
          <mxGeometry x="400" y="256" width="120" height="80" as="geometry" />
        </mxCell>
        <mxCell id="O2Zdhxr6QXAhQVbzM1EF-126" value="&lt;font&gt;Yes&lt;/font&gt;" style="text;html=1;align=center;verticalAlign=middle;whiteSpace=wrap;rounded=0;fontColor=light-dark(#000000,#000000);fillColor=light-dark(#E3C800,#FFFF33);strokeColor=#B09500;fontSize=12;fontFamily=Times New Roman;fontStyle=1" parent="1" vertex="1">
          <mxGeometry x="295" y="238" width="35" height="15" as="geometry" />
        </mxCell>
        <mxCell id="O2Zdhxr6QXAhQVbzM1EF-134" style="edgeStyle=orthogonalEdgeStyle;rounded=0;orthogonalLoop=1;jettySize=auto;html=1;exitX=0.5;exitY=0;exitDx=0;exitDy=0;entryX=0.5;entryY=1;entryDx=0;entryDy=0;strokeColor=#23445D;fontSize=12;fontFamily=Times New Roman;fontStyle=1" parent="1" source="O2Zdhxr6QXAhQVbzM1EF-129" target="O2Zdhxr6QXAhQVbzM1EF-91" edge="1">
          <mxGeometry relative="1" as="geometry" />
        </mxCell>
        <mxCell id="O2Zdhxr6QXAhQVbzM1EF-129" value="Train and Valid Split Data" style="rounded=1;whiteSpace=wrap;html=1;strokeColor=#432D57;fontColor=#ffffff;fillColor=#76608a;fontSize=12;fontFamily=Times New Roman;fontStyle=1" parent="1" vertex="1">
          <mxGeometry x="140" y="818" width="120" height="60" as="geometry" />
        </mxCell>
        <mxCell id="O2Zdhxr6QXAhQVbzM1EF-130" value="Test Data" style="rounded=1;whiteSpace=wrap;html=1;strokeColor=#432D57;fontColor=#ffffff;fillColor=#76608a;fontSize=12;fontFamily=Times New Roman;fontStyle=1" parent="1" vertex="1">
          <mxGeometry x="490" y="818" width="120" height="60" as="geometry" />
        </mxCell>
        <mxCell id="O2Zdhxr6QXAhQVbzM1EF-135" style="edgeStyle=orthogonalEdgeStyle;rounded=0;orthogonalLoop=1;jettySize=auto;html=1;exitX=1;exitY=0.5;exitDx=0;exitDy=0;entryX=0;entryY=0;entryDx=0;entryDy=68;entryPerimeter=0;strokeColor=#23445D;fontSize=12;fontFamily=Times New Roman;fontStyle=1" parent="1" source="O2Zdhxr6QXAhQVbzM1EF-107" target="O2Zdhxr6QXAhQVbzM1EF-123" edge="1">
          <mxGeometry relative="1" as="geometry" />
        </mxCell>
        <mxCell id="O2Zdhxr6QXAhQVbzM1EF-143" style="edgeStyle=orthogonalEdgeStyle;rounded=0;orthogonalLoop=1;jettySize=auto;html=1;exitX=0.5;exitY=1;exitDx=0;exitDy=0;entryX=0.5;entryY=0;entryDx=0;entryDy=0;strokeColor=#23445D;fontSize=12;fontFamily=Times New Roman;fontStyle=1" parent="1" source="O2Zdhxr6QXAhQVbzM1EF-136" target="O2Zdhxr6QXAhQVbzM1EF-137" edge="1">
          <mxGeometry relative="1" as="geometry" />
        </mxCell>
        <mxCell id="O2Zdhxr6QXAhQVbzM1EF-136" value="Predic Relative Poses" style="rounded=1;whiteSpace=wrap;html=1;strokeColor=#6c8ebf;fillColor=#dae8fc;fontSize=12;fontFamily=Times New Roman;fontStyle=1" parent="1" vertex="1">
          <mxGeometry x="580" y="178" width="120" height="60" as="geometry" />
        </mxCell>
        <mxCell id="O2Zdhxr6QXAhQVbzM1EF-145" style="edgeStyle=orthogonalEdgeStyle;rounded=0;orthogonalLoop=1;jettySize=auto;html=1;exitX=1;exitY=0.5;exitDx=0;exitDy=0;entryX=0.5;entryY=1;entryDx=0;entryDy=0;strokeColor=#23445D;fontSize=12;fontFamily=Times New Roman;fontStyle=1" parent="1" source="O2Zdhxr6QXAhQVbzM1EF-137" target="O2Zdhxr6QXAhQVbzM1EF-138" edge="1">
          <mxGeometry relative="1" as="geometry" />
        </mxCell>
        <mxCell id="O2Zdhxr6QXAhQVbzM1EF-137" value="Ground truth Alignment" style="rounded=1;whiteSpace=wrap;html=1;strokeColor=#6c8ebf;fillColor=#dae8fc;fontSize=12;fontFamily=Times New Roman;fontStyle=1" parent="1" vertex="1">
          <mxGeometry x="580" y="278" width="120" height="60" as="geometry" />
        </mxCell>
        <mxCell id="O2Zdhxr6QXAhQVbzM1EF-147" style="edgeStyle=orthogonalEdgeStyle;rounded=0;orthogonalLoop=1;jettySize=auto;html=1;exitX=1;exitY=0.5;exitDx=0;exitDy=0;strokeColor=#23445D;fontSize=12;fontFamily=Times New Roman;fontStyle=1" parent="1" source="O2Zdhxr6QXAhQVbzM1EF-138" target="O2Zdhxr6QXAhQVbzM1EF-139" edge="1">
          <mxGeometry relative="1" as="geometry" />
        </mxCell>
        <mxCell id="O2Zdhxr6QXAhQVbzM1EF-138" value="Metric Calculations" style="rounded=1;whiteSpace=wrap;html=1;strokeColor=#6c8ebf;fillColor=#dae8fc;fontSize=12;fontFamily=Times New Roman;fontStyle=1" parent="1" vertex="1">
          <mxGeometry x="720" y="228" width="120" height="60" as="geometry" />
        </mxCell>
        <mxCell id="O2Zdhxr6QXAhQVbzM1EF-139" value="Trajectory Visualization" style="ellipse;whiteSpace=wrap;html=1;strokeColor=#d79b00;fillColor=#ffcd28;gradientColor=#ffa500;fontSize=12;fontFamily=Times New Roman;fontStyle=1" parent="1" vertex="1">
          <mxGeometry x="928" y="218" width="120" height="80" as="geometry" />
        </mxCell>
        <mxCell id="O2Zdhxr6QXAhQVbzM1EF-142" style="edgeStyle=orthogonalEdgeStyle;rounded=0;orthogonalLoop=1;jettySize=auto;html=1;exitX=0.5;exitY=0;exitDx=0;exitDy=0;entryX=0;entryY=0;entryDx=0;entryDy=122;entryPerimeter=0;strokeColor=#23445D;fontSize=12;fontFamily=Times New Roman;fontStyle=1" parent="1" source="O2Zdhxr6QXAhQVbzM1EF-130" target="O2Zdhxr6QXAhQVbzM1EF-123" edge="1">
          <mxGeometry relative="1" as="geometry" />
        </mxCell>
        <mxCell id="mVTKuXDOy_IMATIsshax-4" style="edgeStyle=orthogonalEdgeStyle;rounded=0;orthogonalLoop=1;jettySize=auto;html=1;exitX=0.5;exitY=1;exitDx=0;exitDy=0;entryX=1;entryY=0.5;entryDx=0;entryDy=0;" edge="1" parent="1" source="O2Zdhxr6QXAhQVbzM1EF-76" target="O2Zdhxr6QXAhQVbzM1EF-130">
          <mxGeometry relative="1" as="geometry" />
        </mxCell>
        <mxCell id="mVTKuXDOy_IMATIsshax-5" style="edgeStyle=orthogonalEdgeStyle;rounded=0;orthogonalLoop=1;jettySize=auto;html=1;exitX=0.5;exitY=1;exitDx=0;exitDy=0;entryX=0.5;entryY=1;entryDx=0;entryDy=0;" edge="1" parent="1" source="O2Zdhxr6QXAhQVbzM1EF-76" target="O2Zdhxr6QXAhQVbzM1EF-129">
          <mxGeometry relative="1" as="geometry" />
        </mxCell>
      </root>
    </mxGraphModel>
  </diagram>
</mxfile>
